<svg id="Layer_1" xmlns="http://www.w3.org/2000/svg" viewBox="0 0 1009 759.8"><style>.st0{fill:#e0f1ed}.st1{stroke:#6dc2b6}.st1,.st2{fill:none;stroke-width:.6821;stroke-miterlimit:10}.st2{stroke:#000}</style><path id="XMLID_3_" d="M.3 0h1008.6v336.4H.3z"/><path id="XMLID_2_" class="st0" d="M.3 336.4h1008.6v423.3H.3z"/><path class="st1" d="M.3 145.4c1.3 5.6 7 5.7 7 5.7 38 3.2 23.3-56.3 63-117s41.8-17.7 108.4 1.5 5.7 101-29.7 60.4S337 .2 361.5 29.4 358 70.5 358 70.5s-68 23.3-65 101.1c3.1 77.9 86.4 84 98.1 84s86.1-5.8 89.5-87.3C484.7 71 367.8 55.8 371.8 78.5s18.2 18.9 22.4 4.1c4.2-14.7-12 15.3-21.1 16.4-9.2 1.1-28.7-13.1-23.9 3.6 0 0 13.1 3.3 4.7 11.7s-12.5 10.6-2.5 13.6 62.9 15.3 57.3-3.1c-5.6-18.4-59.5-8.1-69.5 19.2s9.7 28.4 11.7 28.9c1.9.6 14.5 5.6 14.5 23.4s7.8 32 14.5 31.2 19.2-27.3 27.8-28.1 17.8-1.7 4.7 14.5-7-19.2-4.7-24.2 7.8-22.1.6-29.1-17.5-9.8-15.6-2.3 15.6 20 31.2 16.7c15.6-3.3 16.7-18.4 12.8-23.9-3.9-5.6-16.7-8.3-16.1-3.6.6 4.7 7 7.2 28.7 4.5 21.7-2.8 18.4 18.9 18.4 18.9s-6.5 37.6 43.1 45.1 57.1-55.7 113.4-43.5c56.4 12.2 35.9 99.9 84.9 58.4s27.1-92.4 0-63.2-158.2 78.3-40 101.9c76.8 15.3 105.1 66.9 105.1 66.9"/><path class="st2" d="M773.7 336.4s34.9 61.8-178.4 182.6c-52 29.4-87.3-82.5-19.9-36.4 103 70.4 89.1 284.6-109.4 18.9-16.2-21.7-27.9 24-22.7 32.4 1.8 2.9 3.2 1.1 7.9-1.1 1.4-.6 2.9-1.6 3.1-3.1.2-2.1-2.5-3.3-4.6-3.5-9.1-.8-17.9 2.8-26.1 6.7-9.6 4.5-18.9 9.5-28 14.9-2.2 1.3-4.6 2.9-5.4 5.3-.3 1-.3 2.2.6 2.8.4.3 1 .4 1.5.4 4.1.1 8.1-3 9-7 .7-2.9-.2-6.1-1.8-8.6-1.6-2.6-3.8-4.6-6.1-6.6-.5-.4-1.1-.9-1.2-1.6-.2-1.1.8-2 1.7-2.6 4.4-2.7 10.5-2.3 14.6.9 1-.4 1.3-1.6 1.2-2.7-.1-1.1-.5-2.1-.5-3.2.2-2.7 3.5-4.1 6.2-4.3 7-.5 14 3.1 17.7 9 .6 1 1.2 2.1 1.7 3.1 1.6 3.3 2.8 6.8 3.8 10.4.5 1.9.9 3.8.6 5.8-.6 3.6-4 6.6-7.7 6.7-.7 8.6-3.6 24.4-13.1 25-3.4.2-7.4-8-3.1-10.9s10.4-1.8 14.4 1.5 6.1 8.3 7.2 13.4c1.2 5.7-5.3 57.8-17.9 92.5-1.6 4.4-10.1 23.1-8.7 27.1 1.7 4.5 6.3 2.9 10.8 2.4 3-.3 7.2-.3 8.2-1.4 2.1-2.4 2.4-7.6-.2-8.8-1.7-.8-6.2 1-8.3-.7-9.9-8-7.9-32.7-27.2-1.1-2.1 3.5-5.7 8.2-7.9 12.6-.9 1.9-1.3 4.3-.3 5.9.6.9 1.5 1.4 2.5 1.7 3 1 16.8-.4 17-4.1.4-6.7-8.4-5.8-8.1-7.8 2.4-17.3-12-28.5-14-33.6-8.6-21.9 3.2-100 18.2-100.4 7.1-.2 7.7 26.8 14.7 28.2 10.5 2 15.1 41.4 24.2 35.8 8.6-5.4 12.5-3.4 13.9 1.8 2.4 8.7-6 55.6-9.3 77.6 0 0-4.6 51.5-92.6 39.9-49.5-6.5-238.6-75-104.2-64.4 32.4 2.6 72 42.2-3.4 62.9-41 11.3-141.3-6-170.8-68C52 637.5 24.6 646.9.6 680.2"/></svg>