<svg id="Layer_1" xmlns="http://www.w3.org/2000/svg" viewBox="0 0 142.6 145.3"><style>.st0{fill:none;stroke:#000;stroke-miterlimit:10}</style><path class="st0" d="M17.1 117.5c-5.9-1-2.6-6.9-2.3-8.3.3-1.4-1.2-3.3-3.5-4.4-2.4-1.1 3.9-4.7 4.5-5.2.6-.5-2.9-2-5.9-.6-1.8.9-.8-2.8-1-5.3-.3-2.5-2.1-4.2-6.7-6.2C-2.5 85.5 4 79.1 7 74s.1-16.6.1-16.6c-1.3-12.4 9-40.9 33-38.2 0 0 12.3-.4 6.9 23.3-5.2 22.7-8.8 19.6-8.7 25.8.2 11.9 32.2 15.7 40.6 7.5C90.8 64.3 96.2 47 83 40.5 65.8 32 64.6 21.9 64.6 21.9 63.6.7 86.1-5.1 97.7 6.1c0 0 7.6 8.8 13.3 8.8 5.7 0 14.3-2.3 13.4 2.9-.9 5.2-.5 7.8 1.3 9.3 1.8 1.5 4.3 1.8 3.7 3.8-.7 2-5.9 2.6-4.1 4.6.6.6 8.5-2.9 8.1-.2-.4 2.7.4 5 1.6 5.5 1.3.5 7.8.8 5.4 6.5 0 0-4.6 7.2-3.3 12.6 1.3 5.4 8.6 10.3 3 16.2 0 0-5.5 3.9-14 2.8-8.5-1-10.6-11.5-12.3-22.4-2.7-17.4-10-32.6-21.7-39.6-41.9-25.1-60.6 5.4-58.8 10.7 5.6 16.8 55.3 11.1 62.9 16.8 6.5 4.8 3.4 19.7-5.4 17.8-7.2-1.6-22.5-3-25.1 1.8-2.6 4.8 22 32.5 50.7 34.4 16.8 1.1-3.9-29.8-14.7-28.6-11.2 1.9-12.7 6.4-16.4 12.7 0 0-4.6 10.9-9.9 12.8-5.4 1.9-14.3 2.7-11.8 7.3 2.4 4.6 2.9 7.2 1.6 9.3-1.3 2.1-4.2 4.1-2.3 4.8 2.8 1.1 4.4 2.7 1.5 3.4-.8.2-5.1-.4-3.9 2.1 1.2 2.4 1.2 4.8.1 5.8-1 .9-7.1 3.3-3.1 8 0 0 14.9 13.5 33.2 7.2 17.1-5.9 8.6-25.7 8.8-40.9.1-9.2 17-32.7 26.8-32.5 5.7.1 15.4 6.9 13.3 24.3-1 8-1.2 13-10.9 19.2-12.6 8-10.4-5.7-17.9 10.5-7.7 16.8-12.9-2.5-32.2 5.9-14.4 6.3-21.4 11.9-34.8 7.2-22.4-7.8-27.5-20.4-19.6-30.8 14.9-19.7 25.9 35.6 30.3-7.4C56.3 81 56 87.8 58 74.2s.7-17.3-5.4-23.2c-10.2-10-26.1-13.2-30 8.5-2.3 13-2.6 28.5 9.7 27 12.3-1.5 17.9 6.3 8.3 11.7-9.6 5.4-4.1 9.3-8.1 14.8-3.9 5.5-11.3 5.5-15.4 4.5"/></svg>