<svg xmlns="http://www.w3.org/2000/svg" viewBox="0 0 287.88 84.19"><defs><style>.cls-1{fill:#dadada}.cls-2{fill:#009ad7}.cls-3{fill:none}</style></defs><title>Asset 1</title><g id="Layer_2" data-name="Layer 2"><g id="Layer_1-2" data-name="Layer 1"><path d="M37.89 65.48H38a9.77 9.77 0 0 1 3.89-3.09c3.62-2 8.76-2.79 10.21-7.2a26.32 26.32 0 0 0 .16-4.38V28.15c.32 0 .71.3 1 .16 1.37-1.88 2.59-3.8 4-5.64a.29.29 0 0 0 0-.21 20 20 0 0 0-2.79-1 15.86 15.86 0 0 0-1 2.05c-.71-.1-1.45-.42-2.19-.6a.08.08 0 0 0-.05 0c0-.76.51-1.58.39-2.32l-.58-.18a16.54 16.54 0 0 0-1.9-.4c-.29.63-.29 1.53-.55 2.25l-2.11-.4c0-.74.23-1.5.31-2.25a10.4 10.4 0 0 0-2.56-.48 12.55 12.55 0 0 0-.42 2.29.09.09 0 0 1-.06 0l-2.19-.24c-.13-.74.14-1.56 0-2.32a11.48 11.48 0 0 0-2.52-.13c-.13.18-.05.43-.11.61a8.91 8.91 0 0 1 .07 1.72h-1.3v5.4h.4a49 49 0 0 1 12.71 1.69H37.7v37.07l.16.23m-.16-44.39h-.92c-.11-.74 0-1.53-.11-2.3a23 23 0 0 0-2.72.08v2.32l-1.92.21c-.29-.68-.08-1.66-.45-2.29-.79.06-1.55.18-2.35.32-.13 0-.27 0-.35.1 0 .77.29 1.53.32 2.25l-.71.13-1.32.24-.08-.08c-.24-.69-.16-1.5-.56-2.11a18.79 18.79 0 0 0-2.66.68c.05.71.37 1.43.47 2.16l-1.82.5c-.05-.08-.08-.18-.13-.28-.13-.51-.34-1-.47-1.46-.05-.11-.05-.21-.19-.26a13.61 13.61 0 0 0-1.79.6 7 7 0 0 0-1.29.58c.82 1.61 1.93 3.11 2.88 4.67.31.42.45 1 1 1.32.29-.05.6-.16.9-.19v17.4c.1 2.82-.24 5.67.24 8.47a7.61 7.61 0 0 0 3.59 4.94c2.06 1 4.11 2 6.17 3a10 10 0 0 1 4.21 3.12V28.15H24.6v-.05a37 37 0 0 1 4.17-.9c1.4-.24 2.74-.39 4.16-.53 1.22-.1 2.43-.18 3.64-.18h1.13z"/><path class="cls-1" d="M34.15 58.91v-.13c0-.02.06 0 .08-.08 0-.21-.08-.5.08-.69a.68.68 0 0 1 .42-.42 4.57 4.57 0 0 1 .93-.13 1.5 1.5 0 0 1 .48 0c.08-.05 0-.13 0-.21s-.15 0-.23 0a.81.81 0 0 0-.45.06h-.21a2 2 0 0 0-.58.24c-.13 0-.21.13-.32.24s-.05.13-.08.19 0 0-.08.05l-.13.27c-.08.21 0 .4 0 .61l.05.05z"/><path class="cls-2" d="M38 63.79c2.76-2.79 7-3.7 10.54-5.65a.09.09 0 0 1 .05 0 1.48 1.48 0 0 0-.45-.47 13.6 13.6 0 0 0-8.78-3.24 8.13 8.13 0 0 0-.95 0 .57.57 0 0 0-.31 0l-1.24-.06c-.13.08-.26 0-.4 0a13.21 13.21 0 0 0-2.25.22 16.63 16.63 0 0 0-1.84.47c-.39.16-.82.34-1.24.5a8.32 8.32 0 0 0-1.24.68 13.13 13.13 0 0 0-2.11 1.58c-.13.05-.13.08-.16.16 2.69 1.45 5.62 2.77 8.29 4.27a9.89 9.89 0 0 1 2 1.59z"/><path d="M37.89 61.57c.43 0 .71-.29 1-.35.19.21.45.16.68.19s.51-.1.74-.19a3.18 3.18 0 0 0 .74-.6c.11-.19.32-.13.48-.24.26.13.58-.11.82-.21a2.41 2.41 0 0 0 1.16-1.66 2.31 2.31 0 0 0-.69-2.09 5.12 5.12 0 0 0-2.45-1 8.54 8.54 0 0 0-1.37-.13c-1.93-.1-5.22.45-5.83 1.11-.26.11-.32.29-.47.5a3.27 3.27 0 0 0-.27 1.93 2.33 2.33 0 0 0 1.37 1.47 1.74 1.74 0 0 0 .64.13s.05.05.05.08 0 0 .05 0l.29.23c.23.08.42.21.68.29a1.49 1.49 0 0 0 1.35 0 2.26 2.26 0 0 0 .53.34c.14.16.32.08.47.16"/><path class="cls-2" d="M38 61.39a1.33 1.33 0 0 0 .84-.39.48.48 0 0 1 .37.18 2.22 2.22 0 0 0 .82 0 1.73 1.73 0 0 0 1-.64.66.66 0 0 1 .43-.26 2 2 0 0 0 .89-.29 2.3 2.3 0 0 0 1-1.4 2.13 2.13 0 0 0-.53-1.93c-2-1.35-4.72-1.29-7-.95-1 .27-2.16.48-2.69 1.22a1.52 1.52 0 0 0-.42 1 2.06 2.06 0 0 0 .48 1.63.74.74 0 0 0 .16.19 3 3 0 0 0 1.21.56.53.53 0 0 1 .34.21l.18.13c.47.26 1.19.63 1.74.34 0-.05 0-.11.08-.11h.11c.08 0 .1.14.21.16s.34.16.47.29.21 0 .34.08"/><path d="M37.81 61a3.91 3.91 0 0 0 .58-.08 1.45 1.45 0 0 0 .42-.21l.18.13c.27 0 .48.21.77.08a2.15 2.15 0 0 0 1.08-.69.57.57 0 0 0 .47-.13l.19-.27c.21-.58.81-1.18.42-1.84a1 1 0 0 1-.07-.26 2.17 2.17 0 0 0-.66-.53 2 2 0 0 0-1.56-.2l-.4-.45a3.11 3.11 0 0 0-2.14-.19 1.08 1.08 0 0 0-.63.53.35.35 0 0 1 0 .23.72.72 0 0 0-.37-.31.78.78 0 0 0-.46-.06 1.8 1.8 0 0 0-.88.16 2.4 2.4 0 0 0-1 .93 2 2 0 0 0 .16 1.58c.29.5.82.66 1.24.9.08.21.32.26.5.34a3 3 0 0 0 1.1.13l.25-.09a3.85 3.85 0 0 0 .76.35z"/><path class="cls-1" d="M39.81 60.76l.18-.18.71-.56c.08-.08.2 0 .34-.08s.08 0 .11 0c.26-.16.26-.53.47-.77 0 0 0 .05-.08.05a.06.06 0 0 1-.06-.05 1.58 1.58 0 0 0-.05-1.06s-.1 0-.1-.1v-.08a3.49 3.49 0 0 0-.58-.31 1.91 1.91 0 0 0-1-.13v-.05c0-.05.05-.1.1-.13a2.52 2.52 0 0 1 1.57.4 1.18 1.18 0 0 1 .4 1.14.22.22 0 0 1 0 .13c.13-.15.08-.42 0-.63v-.1c0-.02-.24-.24-.18-.43a2.07 2.07 0 0 0-1.84-.58.09.09 0 0 1-.08 0 .3.3 0 0 0-.11.26 5.42 5.42 0 0 1-.68 2.82v.08c.1.1.26.16.4.28s.37 0 .5.08m-1.97-.14a1.14 1.14 0 0 0 .87-.29v-.24l.16-.26a3.32 3.32 0 0 0 .4-1.24 4.1 4.1 0 0 0 .05-1.5c-.05-.08-.08-.24-.19-.27a3.07 3.07 0 0 0-1.87-.26 1.49 1.49 0 0 0-.31.1.85.85 0 0 0-.35.53 7.2 7.2 0 0 0 .08 1.48 2.72 2.72 0 0 0 .48 1.4 3.11 3.11 0 0 1 .11-.87h.13v.29c.35.06.74-.1 1 .08a.1.1 0 0 0 0 .05.18.18 0 0 1-.13.1c-.23-.15-.53 0-.79-.05h-.16c-.1.19 0 .4 0 .6a.21.21 0 0 0 0 .14l.11.05v-.47a.8.8 0 0 1 .06.5z"/><path class="cls-1" d="M36.26 60.55a1 1 0 0 0 .77-.27c.05 0 .11 0 .11.08a.3.3 0 0 0 0 .13h.05a.13.13 0 0 1 0-.08 2.08 2.08 0 0 1-.45-.71.21.21 0 0 0-.24.05.35.35 0 0 1-.29.16l-.08-.08.45-.32h.08l-.21-1.24c-.08 0-.16.13-.26.08s0-.1 0-.13a1 1 0 0 1 .23-.16 2 2 0 0 0 0-.77c-.08-.08-.13-.16-.21-.19l-.06-.05a1.72 1.72 0 0 0-1.61.16 1.58 1.58 0 0 0-.68.76 1.49 1.49 0 0 0 0 .77 1.6 1.6 0 0 0 .39.87.16.16 0 0 0 .11.05l.29.18c0-.05-.05-.08-.08-.13s0-.08.08-.1l.55.42v.08l.06.06c.06.06.18-.08.26 0a1.87 1.87 0 0 0 .79.37"/><path d="M38 60.52v-.39h-.08l-.05.21v.16zm.34-.06a.17.17 0 0 0 .1-.16v-.23l-.05-.05-.08.05v.37zm1.08-.1c.07 0 .1-.11.13-.18a.05.05 0 0 0-.05-.05l-.08.19v.06zm-.21-.11c.08 0 .11-.11.16-.19a.1.1 0 0 1 0-.05.08.08 0 0 1-.05 0l-.13.21a.08.08 0 0 0 0 .05zm-.5-.25c.08-.11 0-.29 0-.42a.73.73 0 0 1-.11-.32h-.08zm1.03-.07a.09.09 0 0 1 .05 0v-.16a.72.72 0 0 1-.24-.15.36.36 0 0 0-.16-.06.17.17 0 0 0 0 .16 2.3 2.3 0 0 0 .32.24m1.39-.13c.06-.08.21-.16.16-.29a.49.49 0 0 0-.23.21v.08zm-1.2-.39s0-.05.05-.05l-.05-.08-.21-.16a4.21 4.21 0 0 0 .53-.76 1 1 0 0 0-.55-.31h-.05v.1c0 .03.34.08.42.27s-.29.37-.45.61l.06.1v.14zm-3.78-.05l.29-.11a.12.12 0 0 0 0-.13V59l-.41-.56h-.08c-.08 0 0 .13 0 .18l.45.53-.24.16h-.05v.08zm4.59-.3h.08V59c0-.11-.18-.13-.26-.19s0 0 0 .08zm-2.87-.02h.4l.06-.08c.06-.08 0 0 0 0h-.4c-.05-.29.11-.66 0-1h-.05a3.7 3.7 0 0 0-.05 1V59s.05 0 .08.05M35.25 59l.08-.06v-.05l.16-.08v-.08c0-.02-.08 0-.13 0l-.21.18V59a.12.12 0 0 1 0 .06zM41 59a.09.09 0 0 0 0-.08 1.27 1.27 0 0 0-.46-.34.13.13 0 0 0 0 .13L41 59zm-6.12-.09a3 3 0 0 1 .63-.35.07.07 0 0 0 0-.1c-.18 0-.37.13-.53.24s-.13.08-.15.13z"/><path d="M39.85 58.56a.09.09 0 0 0 .05 0v-.08c0-.03-.16-.16-.29-.11s0 .06 0 .08zM36 58.17l.43-.21a.08.08 0 0 0 0-.1c-.16-.06-.29.1-.43.18s-.05 0-.05.08v.05zm2.58-.1l.21-.06a.09.09 0 0 0 0-.05l-.05-.07.24-.06v-.08h-.77v.08h.42-.1v.08l.05.06zM37.21 58h.26l.08-.08v-.08a.3.3 0 0 1 .21 0v-.16H37v.07c0 .02.15 0 .21.06s0 0 0 .08v.08z"/><path class="cls-1" d="M48.78 57.88a2.08 2.08 0 0 0 .95-1c.11-.5.24-1 .35-1.5h-.85c-.26.72-.34 1.58-.58 2.32zm-21.39-.03l.65-.61s-.13-.05-.13-.13a4.63 4.63 0 0 0-.24-.9h-1l.37 1.48zm21.02-.32c.11-.42.21-.87.34-1.32h-.92l-.23.71zm-21.71-.2l-.18-.6-1.1-4.22h-.9a7.59 7.59 0 0 0 1 3.43 8.28 8.28 0 0 0 1 1.19c.05.1.16.13.23.21"/><path d="M37.58 57.33l.24-.05a.05.05 0 0 0 0-.05h-.32c0 .06.08.06.13.08m.55.02l.4-.05v-.06h-.45l.05.05m-.18-.05V57c0-.05-.1 0-.13 0l.16.24z"/><path class="cls-1" d="M28.21 57.12l.79-.59-.24-1-.97.03.39 1.58.03-.02zm19.22-.38v-.02l.32-1.27-.02-.03-.82.03-.19.79.69.5h.02zm2.67-.18a1.94 1.94 0 0 0 .45-.5 6.26 6.26 0 0 0 .76-3.67H51c-.35 1.37-.66 2.8-.95 4.2zm-20.83-.16l.52-.34-.63-.06.11.4zm17.21-.23a1.16 1.16 0 0 0 .11-.32H46zm-18.85-.24l-.24-.92-.97.02.21.92 1-.02zm20.37 0l.87-.06a4.4 4.4 0 0 0 .24-1.05h-.92l-.24 1a.06.06 0 0 0 .05.06m-17.99-.13l-.16-.8-.93-.03.19.85.9-.02zm.33-.03l.8-.4-.24-.87h-.92l.34 1.27h.02zm15.38-.03l.92-.1.18-.74h-1.06l-.19.72zm-.4-.21l.27-1.08a3.22 3.22 0 0 0-.9 0l-.1.43v.05l-.06.32zm-16.63-.19l-.21-.82h-1l.23.82h1m3.43-.5l-.82.08c-.07.05.06.24.08.32a5.36 5.36 0 0 0 .74-.39m17.99.39l.21-.87h-.87a3.88 3.88 0 0 0-.23.82c.24.1.58-.06.84.05M47 55.16h.77l.26-.8a3.35 3.35 0 0 0-.87 0 2.15 2.15 0 0 0-.18.82zM44.46 55v-.26l-.87-.06a6.8 6.8 0 0 0 .85.32m-11.9-.23l.02-.06.85-.28-.03-.06-1-.03.16.43zm-5.22-.03l-.53-2.22h-1l.47 2.22h1.06zm1.47-.03h1l-.53-2.09a6.19 6.19 0 0 0-1-.05 15.61 15.61 0 0 0 .58 2.16m3.41-.07l-.48-1.98-1.06-.05.51 2 1.03.03zm10.31-.32l-.03.03-.03.08.03.03.66.18h.05l.11-.32h-.79zm4.32.24l.45-2h-1l-.45 2a6.5 6.5 0 0 0 1 0zm1.34 0l1-.06.48-2.08h-.92l-.48 2.11zm-4.53-.02h.73a17.29 17.29 0 0 0 .48-2H44a16.81 16.81 0 0 0-.42 1.87zm-9.34-.25l-.39-1.65-.79-.03.37 1.85.81-.17zm7.84.09h.08l.08-.24v-.05a10.51 10.51 0 0 0 .32-1.42h-.74a8.09 8.09 0 0 0-.42 1.56zm-7.52-.13l.84-.14-.42-1.44h-.84a7.26 7.26 0 0 0 .4 1.61zm6.33-.03h.13a9.64 9.64 0 0 0 .4-1.48h-.84a7.71 7.71 0 0 0-.32 1.37c.16.11.42.06.63.11m-10.15-.11l-.45-1.5-.95-.08.45 1.55.95.03zm-2.48.03l-.47-1.61-.85-.03.34 1.64h.98zm4.88 0l-.37-1.53-.87.03.34 1.47.9.03zm6.3 0h.5a9.38 9.38 0 0 0 .34-1.29v-.08h-.79a3.2 3.2 0 0 0-.24.85 1.13 1.13 0 0 0-.08.42z"/><path class="cls-2" d="M38.1 54.13h.87c.58-1.42.24-2.9.32-4.38v-3.11a4.92 4.92 0 0 0-1.08-.05.1.1 0 0 0-.08 0 .32.32 0 0 0-.06.16c.48 1.27.76 2.74 1.16 4a1.52 1.52 0 0 1-1.08.58 1.63 1.63 0 0 1-.74-.13 1.54 1.54 0 0 1-.47-.34.38.38 0 0 1-.24-.24c.08-.42.21-.79.32-1.21.26-.79.47-1.69.71-2.51 0-.13.08-.29 0-.39s.05-.21.1-.32a.19.19 0 0 1 .16 0l.13.08h1.13a1 1 0 0 0 .06-.5 2.46 2.46 0 0 1 0-.42v-4.98c-.06-.44 0-.89-.06-1.29.06-.24 0-.5.06-.69a.89.89 0 0 1 .37-.63l.24-.18.32-.06c.1-.34-.06-.76.08-1.1.21-.08.52 0 .76 0 .42 0 .9-.13 1.26.05a.14.14 0 0 1 .11.16v.4a6.86 6.86 0 0 0 1.45 0c.1-.11 0-.29.05-.45a.32.32 0 0 1 .11-.22h.05c.61.16 1.29 0 1.92.11.05 0 .13 0 .13.08s0 .37.08.5h.74l.92-.05v-.53c.23-.21.63-.08.94-.13s.87-.1 1.22.08a.13.13 0 0 1 .1.13.75.75 0 0 0 0 .43 4.87 4.87 0 0 0 1.05 0V28.8H24.47v8.68l4.4-.45.45-.69s.05 0 .1-.05c.21.16.29.47.5.66a18.22 18.22 0 0 0 3.06-.4.19.19 0 0 0 .1-.1.35.35 0 0 0 .11-.29c0-.13.08-.26.08-.4l-.34-.05c0-.26.15-.53.08-.81l-.47.05-.37.11c-.08 0-.11-.06-.13-.13a2.19 2.19 0 0 1 0-.71.37.37 0 0 1 .16-.05 4.36 4.36 0 0 1 .66.13c.08-.29-.1-.61-.08-.9a.2.2 0 0 1 .16-.13 2.37 2.37 0 0 1 .66.08v.89c.23.08.45-.24.66-.13a.09.09 0 0 1 .05 0s.08.05.1.08v.63c-.24.19-.52 0-.79 0-.1.27.21.61.06.87h-.24v.71l.08.05 1.82 3.22c.05-.53 0-1.06 0-1.64a3.76 3.76 0 0 1 0-.56h-.1c-.02 0-.06-.05-.08-.1.11-.32.32-.56.42-.9.11-.11.16-.19.29-.16.24.21.29.45.5.63a26.79 26.79 0 0 1 .15 3.85v2.24l.06.11h.05a.21.21 0 0 1 .13.21v.13l.13-.24a.09.09 0 0 1 .06 0l.15.42c.06.1 0 .26 0 .39s0 .42-.11.63a2.83 2.83 0 0 1-.18.71 2.42 2.42 0 0 0-.26 1.5c0 1.84 0 3.69.08 5.57.16.4.13.94.32 1.42.34.08.74 0 1.13.08"/><path class="cls-1" d="M35.75 54.1h.9l-.21-1.32-1-.08c0 .47.29 1 .31 1.42zm6.91 0h.71a8.25 8.25 0 0 0 .37-1.42h-.82l-.34 1.37s.05.05.08.05m2.34 0h.71a9.14 9.14 0 0 0 .29-1.53 2.91 2.91 0 0 0-.82 0 6.33 6.33 0 0 0-.4 1.48zm3.07-.1l.37-1.53h-.82L47.25 54c.05.1.74 0 .82 0m2.32 0a12.36 12.36 0 0 0 .37-1.48v-.16h-.82a8.18 8.18 0 0 0-.42 1.64zM39.6 52.55h1.21v-.6c-.13-.08-.29 0-.42 0a4.8 4.8 0 0 1-.84.05v.58zm1.5-.05h.37l-.42-2.88.05 2.88zm.82-.03l3.51-.13a8.66 8.66 0 0 0 0-1.63 7.58 7.58 0 0 1 .08-1.29c0-.23.11-.48 0-.69v-.16c0-.06 0 0 .08 0v-.27c-.19-.16-.5-.16-.74-.32s-.53 0-.69-.21v-.05c.11.9.58 1.88.66 2.8v.11c0 .11-.13.13-.19.21a1.55 1.55 0 0 1-1.42.48.73.73 0 0 0-.24-.08 1.32 1.32 0 0 1-.42-.31c-.08-.16-.21-.27-.16-.43a28.94 28.94 0 0 0 1.08-3.69c0-.08.05-.1 0-.13l-1.13-.06.11.69c.08.37.21.74.29 1 0 .11.08.19 0 .27h-.08a2.1 2.1 0 0 1-.32-.69 7.66 7.66 0 0 0-.31-1.32h-.61a.07.07 0 0 0-.06.11c0 .84.16 1.66.27 2.51s0 .08 0 .08a4.91 4.91 0 0 0 .13.58 7.79 7.79 0 0 0 .43 1.15c.16.26.16.63.4.84v.18a.09.09 0 0 1-.05 0 .3.3 0 0 1-.21-.15 7.69 7.69 0 0 1-.55-1.45 16.09 16.09 0 0 1-.55-3.67v-.05c-.05 0-.08 0-.08-.08a.14.14 0 0 0-.1 0c-.08.42.05.9 0 1.32a6.83 6.83 0 0 1 .13 1.25c.05.34.15.71.21 1a.33.33 0 0 1 0 .27c.05.21.05.5.11.71a.27.27 0 0 0 .08.13s0 .05 0 0v.44c0 .15.11.24.16.4zm-6.54-.02h.24a21.42 21.42 0 0 0 .16-2.56c0-.13 0-.23-.06-.34s-.08-.13-.08-.21v-.47c0-.05 0 0 0 0-.08.29 0 .58-.1.87a2.87 2.87 0 0 1-.11.68c-.19.66-.15 1.32-.34 2zm-1.13 0h.36a3.05 3.05 0 0 0 .37-1 14 14 0 0 0 .48-2.93c-.21.45-.21 1.08-.48 1.56s-.45 1.11-.63 1.63a3.38 3.38 0 0 0-.32.74zm1.75 0l.31-.06c.06-.24-.1-.48-.05-.77-.08-.47-.11-.92-.21-1.37 0-.05-.08-.07-.13-.14-.08.14 0 .32 0 .46A11.25 11.25 0 0 0 36 52a1 1 0 0 0-.08.23v.19c0 .08 0 .06.08.06m-2.65-.07h.29a14.72 14.72 0 0 0 1.16-2.59c.27-.58.37-1.21.58-1.74v-.3l-.1-.74v-.1a4.2 4.2 0 0 0-1 1c0 .13-.08.27-.18.32a5.55 5.55 0 0 0-.31 1c-.05.35-.05.69-.13 1 0 .06-.08 0-.1 0a6.51 6.51 0 0 1 .13-1.45h-.05c-.05 0-.05.1-.08.14h-.06a5.58 5.58 0 0 1-.58 1.21c-.16.34-.31.71-.5 1v.1l-.08.05a.05.05 0 0 1-.05-.05c.23-.79.71-1.45 1-2.21h-.05l-.43.37v.08c0 .05-.1.05-.1.1v.08c-.19.13-.27.37-.45.5-.15.29-.37.5-.5.79a7.71 7.71 0 0 0-.37.9c.08.16-.08.26 0 .4h.82zm-8.89-.18l4.17.14.21-.03v-.47l-4.35-.14-.03.5zm4.7.14h.58l.05-3.46c0-3 0-5.88-.05-8.83 0-.66-.1-1.77-.05-2.5h-.58c-.13.13 0 .37-.06.55v7.39l-.11 1 .14 4.48a5 5 0 0 0 0 1.27l.05.05m1.16.05H31a2.14 2.14 0 0 1 .27-.77 1.92 1.92 0 0 1 .19-.47 2.83 2.83 0 0 0-.69.61s0 .08-.05.08l-.39.32v.1l-.05.08s.05 0 .08.05m15.31-.03h.03l.18-.03-.18-1.58-.03 1.61zm.5-.03h.43a1.93 1.93 0 0 1 .15-.45 6.55 6.55 0 0 1 .27-1c0-.1 0-.21.1-.31a5.16 5.16 0 0 0 .24-1.9c.05-.13 0-.24 0-.34a2 2 0 0 0-.14-.32c-.19-.13-.4-.1-.6-.18h-.05a6 6 0 0 1-.29 2.54.91.91 0 0 1-.1.47h-.06a.11.11 0 0 1-.1-.1l.19-.67c-.32-.44 0-1.11-.32-1.58a9.88 9.88 0 0 0-.05 1.24 22.15 22.15 0 0 0 .25 2.29c.05.11 0 .21.05.29zm.95-.02h1a15.61 15.61 0 0 0-.42-2.93l.06-.05a.15.15 0 0 0 0-.1.13.13 0 0 0-.13 0 1.41 1.41 0 0 1-.08.43 4.84 4.84 0 0 1-.16 1.05 8.2 8.2 0 0 1-.4 1.32s0 .05.08.05v.08a.23.23 0 0 0 0 .19z"/><path class="cls-2" d="M48.44 52.23h.24c.05-.26 0-.55 0-.84v-1.27h-.11a1.4 1.4 0 0 1-.42.56l.19 1.5s.05.05.08.05"/><path class="cls-1" d="M49 52.2l2.27-.13v-.24h-.47a12.23 12.23 0 0 1-1.4 0c-.18.05-.31 0-.47.05v.34zM30.11 52a12.64 12.64 0 0 0 1.11-1.08c.05 0 .05-.08.08-.08.27-.34.64-.71.9-1.05a7.19 7.19 0 0 0 1.05-2 3.91 3.91 0 0 1 .19-.5h-.19a1.14 1.14 0 0 1-.21.53c-.16.34-.34.63-.52.95a10.5 10.5 0 0 1-2.46 2.37 3 3 0 0 0 0 .81zm9.47-.35h.55v-.71c-.16-.11-.4 0-.58 0v.68h.05m.85.03h.34a2.59 2.59 0 0 0 0-.77h-.36a1.36 1.36 0 0 0 0 .77zm-13.29-.07l1.68-.03v-.69l-3 .02v.7h1.32zm-2.67-.7v.67h1.08v-.67h-1.08zm24.51.67h1c.08-.13 0-.37 0-.55v-.13a3.57 3.57 0 0 0-1.05 0c-.11.21 0 .47 0 .71 0 0 .08.05.1.05m2.24-.11v-.71a5.86 5.86 0 0 0-.95 0c-.1.21 0 .45 0 .69a5.71 5.71 0 0 0 1 0M38 51.18a1.16 1.16 0 0 0 .63-.21h-1.24a1 1 0 0 0 .61.18m5.58-.02a1.13 1.13 0 0 0 .76-.27c-.42 0-.9.06-1.34 0v.05c0 .05.37.19.6.24M36.36 51v-3.37a12.67 12.67 0 0 0-.29 1.4c.05.24.08.5.13.74a10.46 10.46 0 0 1 .16 1.23"/><path class="cls-1" d="M30.06 51c.19-.13.4-.32.61-.45A7.53 7.53 0 0 0 33 47.3c-.24-.08-.47-.11-.74-.21s-.21-.11-.36-.13a3.48 3.48 0 0 1-1.11-.77c-.21.13-.24.37-.39.53s-.16.39-.39.44v.77a1.28 1.28 0 0 1 .21-.5.18.18 0 0 1 .1-.11h.08a8.5 8.5 0 0 0-.32 1c.29-.29.4-.68.74-1a.19.19 0 0 1 .11-.1s.05-.11.14-.11l-.27.4a6.06 6.06 0 0 0-.69 1.49s0 .05-.05.08v.5s.1-.11.13-.16a10.55 10.55 0 0 1 .81-1.35 1.56 1.56 0 0 0 .29-.32h.06l.13-.08a.1.1 0 0 1 0 .05 7.61 7.61 0 0 1-.63.9 6.56 6.56 0 0 0-.71 1.27c0 .07-.08.07-.08.13v.16c.42-.34.79-1 1.32-1.24l.15-.19a3.14 3.14 0 0 0 .87-1.06l.24-.1c0 .24-.24.42-.34.63a2.54 2.54 0 0 1-.26.26c-.13.27-.5.48-.66.71s-.29.32-.48.42-.4.32-.5.53l-.37.4zm7.94-.19l.87-.05c-.05 0-.08-.11-.08-.11h-1.5s-.1.09-.08.11zm-13.51-.16h2.16c.11-.21 0-.47 0-.68l-2.21-.08v.79zm18.88 0a4.94 4.94 0 0 0 .61 0h.34c.08 0 .26-.13.1-.13a10.15 10.15 0 0 0-1.58 0l.13.16zm-3.79-.03h1.21a5.37 5.37 0 0 0 0-.82 4.71 4.71 0 0 0-1.26 0v.89zm-10.77-.02v-.66L27 49.88l-.03.74 1.84-.02zm20.45-.05h2v-.8a18.3 18.3 0 0 0-2.37 0 2.55 2.55 0 0 0 0 .79z"/><path class="cls-2" d="M37 50.49l.74-.08a26.93 26.93 0 0 0 .08-2.88l-.84 3zm1.74 0h.16a28.93 28.93 0 0 0-.82-3c-.08.95-.05 2-.08 2.93.21.13.51 0 .74.1"/><path class="cls-1" d="M48.12 50.44a2 2 0 0 0 .55-.84c-.05-1 .24-2.22-.24-3.11a3.7 3.7 0 0 0-.84-1.08c-.08.16-.14.32-.21.44a13.51 13.51 0 0 1-.9 1.48c-.05.07-.1.07-.13.13.13.1.35 0 .5.13a2.1 2.1 0 0 0 .37.06c0-.09-.08-.18-.11-.29a.47.47 0 0 1-.18-.47l.06-.06a4.85 4.85 0 0 1 .42.71c.19-.21.14-.6.4-.76a.09.09 0 0 1 .08.08l-.24.68h.13c.11 0 .19.11.37.11 0 .05 0 .05.08.1a.12.12 0 0 1 0 .16.76.76 0 0 0-.37-.13l-.13.08v.08c.19 0 .24.16.37.26.13.27.4.48.34.82a.36.36 0 0 1-.08.1c-.09 0-.11-.13-.11-.21a2.8 2.8 0 0 0-.4-.58c-.05-.08-.13-.13-.19-.1s0 0 0 .05zm-5.33-.05l.84-.08a17.12 17.12 0 0 0 0-2.63 7.46 7.46 0 0 0-.36 1c-.16.58-.37 1.14-.53 1.72zm1.69-.05h.08c.08-.19-.08-.46-.08-.67-.18-.66-.32-1.29-.53-1.93v2.48c.13.11.37 0 .53.11m-15.69-.68v-.77a27.48 27.48 0 0 0-2.9 0v.79zm-4.3 0h1.11l.05-.79h-1.16l-.03.79h.03zm15.06-.19h.5a2.44 2.44 0 0 0 .05-.76c-.16-.08-.4 0-.56-.05zm.84 0h.36a3.93 3.93 0 0 0 0-.79h-.36a1.52 1.52 0 0 0 0 .79m8.71 0h.89v-.79a4.68 4.68 0 0 0-1.08 0v.79c.05.05.13 0 .19.05m1.21-.07h1v-.77h-1a2.37 2.37 0 0 0-.05.81m-3.94-.15a1.12 1.12 0 0 0 .08-.34c0-.08.05-.13 0-.19l-.21-.08v.53h.05l.05.11zM33 49c.13-.06.23-.24.42-.29a1.25 1.25 0 0 0 .45-1.21v-.18c0-.05-.08 0-.13 0-.16.18-.16.5-.27.68a3.91 3.91 0 0 1-.47 1zm-7.51-.38h1.14c.13-.18 0-.5.05-.74a.32.32 0 0 0 0-.11h-2.24v.82zm3.3 0l.03-.79-1.87-.03.05.82h1.79z"/><path class="cls-1" d="M46.43 48.51a1 1 0 0 0-.16-.79 3 3 0 0 1-.61-.37A2.77 2.77 0 0 0 45 47s.06.05.08.11v.08c-.27 0-.53-.16-.79-.11h-.11a.14.14 0 0 1-.08-.13s0-.08.08-.08l.11-.05s.05-.1.1-.1c.63-.16 1.06.31 1.53.55.19-.13.24-.34.42-.5v-.08a2.17 2.17 0 0 0 .45-1.24.91.91 0 0 0-.21-.58c-.08-.07-.11-.16-.16-.18s-.08 0-.11 0l.08.39a.4.4 0 0 0 0 .19 2.64 2.64 0 0 0-.08.29 1.75 1.75 0 0 1-.53.79.39.39 0 0 0-.1.08l-.42.23h-.08v-.05c.11-.16.34-.19.5-.34a.84.84 0 0 0 .32-.47c-.11 0-.13.19-.29.19s-.34.11-.53.18h-.05c-.05 0-.23 0-.37-.08s-.16-.13-.18-.18 0-.1.08-.1.15.05.21.13L45 46c.19-.05.45 0 .55-.19a1.21 1.21 0 0 0 .53-.79 1 1 0 0 0 0-.48.31.31 0 0 1-.08-.23h-.06c0 .19-.16.32-.13.48l-.13.08a.26.26 0 0 1-.19.18l-.23.11h-.08c-.02 0-.08 0-.08-.09s0-.1.08-.13a.71.71 0 0 0 .48-.39 1.19 1.19 0 0 0-.08-.69l.06-.11s-.15.08-.18.19l-.29.22a2.49 2.49 0 0 1-.87-.11h-.08c-.03 0-.08.31-.08.47s.19.29.26.45.32.1.37.29c0 .05-.05.09-.11.11s-.42-.11-.55-.32-.11-.15-.11-.23a2.51 2.51 0 0 0-.11-.3c-.19.11-.1.4-.13.58a1.76 1.76 0 0 0 .61 1v.1c-.13 0-.24-.1-.32-.15a4.42 4.42 0 0 1-.47-.74c0-.08-.11-.18-.05-.27l.08-.05v-.23a.11.11 0 0 1-.11-.06 1.42 1.42 0 0 0 0 1.08.44.44 0 0 1 .16.23v.08a.18.18 0 0 1-.16 0c-.18-.11-.16-.32-.26-.45a3.25 3.25 0 0 1 0-.74c-.08 0-.16.1-.21.15 0 .27-.06.56.1.79L43 46a.09.09 0 0 1-.08 0c-.13-.05-.16-.21-.18-.34s0-.19 0-.29h-.06l-.16.26.18.29a.7.7 0 0 0 .11.32.08.08 0 0 0 .05 0h.85s.08-.13.15-.16h.11c.05.11.16.23.11.37s-.08.11-.11.13l.16.71a.09.09 0 0 0 .05 0l-.08-.16.08-.07a1.11 1.11 0 0 1 .66.16.11.11 0 0 1 0 .13s.11 0 .14.1 0 .11-.08.11h-.19v-.06h-.29s-.05 0 0 0c.53.22 1.21.22 1.58.61.18.1.32.21.5.31zm-5.67-.1v-.71h-1.23v.68c.13.09.37 0 .56 0a4.73 4.73 0 0 1 .68 0m-4.91 0c.19-.76.37-1.53.5-2.29l.1-.5c.32-.24.29-.71.42-1.11a3.33 3.33 0 0 0 .06-.71h-.06l-.13.48-.06.05-.05.08.05-.58-.1.37h-.08c-.08-.24.11-.51.06-.79l-.13.4h-.08l-.06.32h-.05c-.05 0-.05-.16-.05-.24s.13-.24.08-.34c-.26.42-.08 1-.23 1.45a4.44 4.44 0 0 1-.37 1.06.55.55 0 0 0-.14.08.49.49 0 0 0-.05.18v.37c0 .29.11.56 0 .87a3.86 3.86 0 0 0 .29.76zm14.14 0h1.29v-.71h-2.37a1.55 1.55 0 0 0 0 .71zm-15.93-.63l.31-.39a4.23 4.23 0 0 0-.52-1.09l.14 1.48zm-8.44-.24l.02-.84-1.16.05-.03.79h1.17zm3.16 0l.03-.79-.03-.03-2.88-.02v.84h2.88zm10.74-.07h.56v-.79h-.56zm1.23-.04v-.73c-.1-.11-.29 0-.4-.08v.77z"/><path class="cls-1" d="M44.56 47.4h.13a.25.25 0 0 0-.29 0 .32.32 0 0 0 .16 0m4.44-.02h1v-.72l-1.16-.05v.74c0 .05.1 0 .15.05m1.56-.02h.74v-.68a3.8 3.8 0 0 0-1-.06c-.1.21 0 .48 0 .72zm-16.01-.16l.13-.13c0-.21-.21-.29-.32-.45a1.48 1.48 0 0 1-.16-.15l.32.71m11.76-.03h.11l.21-.29-.27.13-.08.16m-12.81-.05c0-.05.06 0 0-.05a9.24 9.24 0 0 1-1.08-.39c-.16 0-.24-.13-.42-.16a5.47 5.47 0 0 1-.79-.48h-.06a4.44 4.44 0 0 0 2.32 1.06m.32-.1v-.07l-.24-.16h-.13s0-.05-.05-.05a5.54 5.54 0 0 1-2.3-1.61.37.37 0 0 0-.35 0c.08.16.21.26.29.42a13.31 13.31 0 0 0 1.11.74 5.76 5.76 0 0 0 1.14.42c.13 0 .21.08.32.11l.1-.06h.05l.08.13z"/><path class="cls-2" d="M34.83 46.93a2.06 2.06 0 0 0 .52-.81 7.08 7.08 0 0 0 0-1.08l-.63 1.77.05.13z"/><path class="cls-1" d="M44.72 46.9h.08-.1"/><path class="cls-2" d="M30.06 46.72h.08c.18-.18.27-.45.45-.66h.05v-.12h-.06a1.21 1.21 0 0 1-.13-.89c.1-.13.31-.13.47-.13v-.05a4.37 4.37 0 0 0-.63-.95 1.55 1.55 0 0 1-.29-.52 8 8 0 0 0 0 1.47v1.85zm3.61-.05a2 2 0 0 0-.37-1.1.11.11 0 0 1 0-.08h.05c.23.24.37.61.74.77.13.08.16.19.24.26l.6-1.68a.32.32 0 0 0-.1-.08.29.29 0 0 1 0-.21c.05-.1.21-.08.29-.19.11-.28.18-.58.29-.89s.18-.48.1-.69a.79.79 0 0 0-.29-.45.56.56 0 0 0-.69.08.8.8 0 0 0-.16.63c.06.19.18.24.35.32l.24-.05a.43.43 0 0 1-.31-.24 1 1 0 0 1 0-.26.39.39 0 0 1 .29-.13.52.52 0 0 1 .27.32c.08.11 0 .24.05.34a.67.67 0 0 1-.34.37.61.61 0 0 1-.61-.08 1 1 0 0 1-.39-.79.93.93 0 0 1 .37-.66 1.23 1.23 0 0 0 .34-.26 1.38 1.38 0 0 0 .31-.05h.34a.05.05 0 0 0 .05-.05v-.22a9.28 9.28 0 0 0-2.45-.12c.21.28.52.6.44 1-.1.26.08.48 0 .74s.18.32.24.5l.13.37c0 .08-.05.11-.13.11h-.19l-.05.58-.11.37-.1.13h-.18c-.16.24 0 .53 0 .76l-.08.1a.5.5 0 0 0 .37.19l-.16-.71a.07.07 0 0 1 .11-.06h.08l.16.82z"/><path class="cls-1" d="M24.54 46.43h2.11v-.79h-2.16l-.03.79h.08zm4.22 0l.03-.77-1.88-.02.04.79h1.81z"/><path class="cls-2" d="M48.65 46.38v-3.37c-.08-.19 0-.34-.14-.53a2.59 2.59 0 0 0-.24-.61 4.93 4.93 0 0 0-1.13-1.47 10.42 10.42 0 0 0-1.26-.61c-.16 0-.37-.11-.53-.11a.66.66 0 0 0-.45 0l-.16-.05h-.08a4.65 4.65 0 0 0-.95.26 4.41 4.41 0 0 0-2.32 1.93c-.1.26-.31.47-.31.76 0 0 .1.08.16.06a.49.49 0 0 1 .47.23 6.39 6.39 0 0 1 .29 1.58l-.05.07s.08.06.1.11.06.23.08.37a1.77 1.77 0 0 0 .18.37.09.09 0 0 0 .05 0l.1-.08a2.3 2.3 0 0 1 .53-.61c.27-.26.69-.47.87-.76l.14-.02-.29-.08c-.1 0-.1-.14-.18-.21a1.83 1.83 0 0 1 0-.77c.16-.39 0-.79.1-1.18v-.06l-.63-.86-.08-.27a.27.27 0 0 1 .13-.18 3.81 3.81 0 0 1 .82.39v.13h.45c0-.05-.05-.08-.05-.14l-.06-.15.37-.55.18-.08c.21.11.24.37.43.5 0 .05 0 .08.05.1a.11.11 0 0 1-.11.11v.13l.42.1v-.13c.18-.21.55-.18.79-.36a.13.13 0 0 1 .1.08 4.29 4.29 0 0 1-.44 1.03 1.19 1.19 0 0 1-.08.14 1.37 1.37 0 0 1 .21.87c0 .28.27.44.16.73a1.44 1.44 0 0 1 0 .19 1.67 1.67 0 0 0-.21.22.18.18 0 0 0-.16.1v.05c.11.08.24.16.26.32a3 3 0 0 1 .58.29 13.54 13.54 0 0 1 1.17 1c.29.34.45.71.73 1.08z"/><path class="cls-1" d="M39.53 46.35h1.21a2 2 0 0 0 0-.66 9.78 9.78 0 0 0-1.23-.05 2.13 2.13 0 0 0 0 .69zm2.02 0h.5a5.63 5.63 0 0 0-.21-1.45 3.4 3.4 0 0 0-.29 1.45zm5.36-.02l.21-.32.22-.63.05-.05a.26.26 0 0 0 .05-.11c-.13-.26-.4-.34-.61-.5l-.08-.07c.11.18.18.29.27.44a3 3 0 0 1-.14 1.25h.08zm2.27.02h2.11v-.66h-2.4a1.76 1.76 0 0 0 0 .66zm-8.08-.02l.05-.13h.11a1.41 1.41 0 0 0 .05-.74c-.05 0-.05 0-.08.05v-.24a.24.24 0 0 0 0-.19v-.28c-.13.31 0 .68-.16 1a5.1 5.1 0 0 0 0 .6zm1.3 0h.1c0-.08-.1-.13-.15-.19s0 .1 0 .19zm-9.68-.11l-.08-.71-.71-.37-.24-.4c-.05 0 0 .05-.08.08s0-.08-.05-.11-.11 0-.13 0a.15.15 0 0 0 0 .1l-.05.37a3.78 3.78 0 0 0 1.34 1m9.7-.18a.12.12 0 0 0-.05-.11V46zm-.13-.28h.06c.06 0 0 0 0 0l-.08-.05a.19.19 0 0 0 0 .11zm3.82-.16l.06-.08c.06-.08 0 0 0 0h-.05s0 .05-.05.08a.06.06 0 0 0 .05.05m-10.47-.1a1.24 1.24 0 0 0 .16-.53 4.28 4.28 0 0 1 .34-1.74c.27-.42.11-1 .13-1.45l-.58-.13c-.08.1 0 .26-.05.39.34.21.18.73.42 1a.38.38 0 0 1 0 .16c0 .05-.05.08-.1.08l-.19.29a2.91 2.91 0 0 1-.19.63 1.23 1.23 0 0 0-.08.18l.08.05.08.21a2 2 0 0 0-.05.87zm-6.89-.14l.05-.73h-2.97v.73h2.92zm-4.27-.02l1.05.03.03-.72-1.08-.02v.71zm16.22.05v-.74h-.4a6.79 6.79 0 0 0 0 .71.08.08 0 0 0 .05 0zm-1.18-.03h.53l.05-.69a1.14 1.14 0 0 0-.61-.05v.74zm9.38 0H50c.13-.21 0-.53 0-.77h-1.09a1.58 1.58 0 0 0 0 .74zm1.45 0h.92v-.77h-1c-.11.21 0 .47 0 .72h.08"/><path class="cls-1" d="M32.54 45.19h.34c0-.05.08 0 .13 0s0 0 0-.06h.06l.08-.26h-.26s-.08-.06-.08-.08v-.08h.29a.34.34 0 0 0 0-.34s0-.05-.05-.08 0 0 0-.06l.31-.08-.29-.71c-.14-.05-.26 0-.4 0s-.24.08-.29.13-.08 0-.1-.08.05-.11.13-.13a3.92 3.92 0 0 1 .6-.19v-.32c-.13-.1-.34 0-.53.06a3.61 3.61 0 0 1-.58.23l-.07.42h-.08l-.07.37h-.06l-.12-.07h-.06a.24.24 0 0 0 0 .26c.06.08.13.11.18.18h.16l.06.08-.08.1-.05.08c.21.16.19.5.53.53l.21.05M41 45l.15-.53c0-.05-.1-.11-.15-.11zm.55 0a.79.79 0 0 0 .15-.43v-.18c0-.26-.13-.52-.13-.82a3.09 3.09 0 0 0-.16-.55l-.16-.08c-.08.1.11.21.13.31s-.13.32-.05.45.08.05.08.1 0 .08-.08.08c-.11 0-.18-.16-.22-.29v-.05a.82.82 0 0 1-.31-.37l.15.29c0 .05.11.1.13.19s0 .05-.05.08-.23-.19-.31-.32l.18.4-.05.08v.05A.41.41 0 0 0 41 44a.2.2 0 0 1 .19.13 2.06 2.06 0 0 1 .24.58.92.92 0 0 1 .11.24"/><path class="cls-1" d="M31.17 44.59h.05l.08-.06h.11a.1.1 0 0 0 .1-.06c0-.1-.13-.16-.13-.29a.55.55 0 0 1-.08-.53c.08-.16.21-.19.37-.24l.05-.13.08-.05v-.05a3.3 3.3 0 0 0-1.09.63.54.54 0 0 0 .13.19v.16l.11.29zm9.52-.14v-.21l-.18-.58h-.98a3.3 3.3 0 0 0 0 .71c.37.13.79 0 1.19.11m-14.09-.11l.07-.68-2.21-.06-.03.74h2.17zm2.16-.05v-.79c-.1.06-.05.11 0 .11a1.5 1.5 0 0 1-.52 0l-1.35.05v.63zm20.12.02h2.37v-.73h-2.4a1.55 1.55 0 0 0 0 .73zm-3.01-.26V44h-.08v.1zm-1.21-.13l.47-.05c.06 0 0-.08.06-.13s0 0 .05-.05.21-.23.37-.16l.08-.05c.11 0 .13-.13.23-.13a.39.39 0 0 0 .16-.36.93.93 0 0 0-.13-.29 1.17 1.17 0 0 1 0-.53c0-.05-.05-.08-.05-.1-.08.29.11.66-.08.93a.44.44 0 0 1-.13.36c-.16-.34.13-.71 0-1h-.08c-.18-.16-.42 0-.63-.08 0 0-.05 0-.05-.08a.11.11 0 0 1 .1-.1 1.1 1.1 0 0 1 .66 0 .66.66 0 0 0-.05-.44 3.56 3.56 0 0 0-1.19-.06.75.75 0 0 0-.55.08.5.5 0 0 0 .07.39 1 1 0 0 1 .56.05s.16.08.16.13v.61c0 .08.13 0 .18.05a.13.13 0 0 1 .06.08v.05c-.08.1-.21 0-.32.05s-.08 0-.1 0c-.08-.16 0-.37-.06-.55h-.29l-.05-.08.05-.11h-.11c0 .05 0 .13-.05.18a2.4 2.4 0 0 0 .29 1.16 1.5 1.5 0 0 0 .13.18l.11.05zm-14.19-.21c.19-.23.48-.31.69-.52a9.12 9.12 0 0 1 1.9-.82.49.49 0 0 0-.09-.4 2 2 0 0 0-.21-.23c-.39.23-.69.65-1.11.81-.16.11-.31.11-.42.18a1.24 1.24 0 0 0-.45.16 4.54 4.54 0 0 1-.61 0 1.34 1.34 0 0 0 .13.53c.13.08.08.24.16.31z"/><path d="M32.77 43.69l.34-.08v-.11l-.43.05a.11.11 0 0 0 0 .08s.06 0 .11.05"/><path class="cls-1" d="M44 43.69l-.18-.53s-.05-.05-.1 0l-.06.32.08.13z"/><path d="M45.06 43.58h.05l.05-.06-.08-.21h-.61l-.14.16c0 .05.11.05.19 0s.05 0 .08-.05l.43.08s0 .06 0 0"/><path class="cls-1" d="M24.49 43.42h1.05v-.9a6.94 6.94 0 0 1-1.05 0v.9zm1.26-.08h3v-1.1c-.89.18-2 .13-2.9.24h-.05zm14.78.03l.21-.58v-.26h-.37a1.67 1.67 0 0 0 0 .79v.05zm-.63 0h.1c.13-.24 0-.55.06-.81-.16-.08-.37 0-.55 0v.79c.08.08.26 0 .4.05m11.22-.03l.16-.06.02-.84h-1.05l.03.84.84.06zM49 43.26l.95.05v-.84h-1.09v.79c0 .05.14 0 .16 0m-7.78-.02l-.18-.4h-.08c-.03 0 .06.27.13.39s.05 0 .11.08z"/><path class="cls-2" d="M30 42.68a.18.18 0 0 1 .21-.08 2.21 2.21 0 0 0 .84 0 .32.32 0 0 1 .11-.08l.05-.05a1.74 1.74 0 0 0 1-.84v-.05a8.19 8.19 0 0 0-1.37.16A7.22 7.22 0 0 0 30 42a.1.1 0 0 1-.06 0v.72z"/><path d="M45.22 42.52h.21a.09.09 0 0 0 0-.06h-.37a.08.08 0 0 0 0 .14z"/><path class="cls-1" d="M44.16 42.34l.21.03-.02-.03h-.19zm-3.34 0l.42-.78a8.39 8.39 0 0 0-1.66-.05h-.08v.73c.42.1.9-.11 1.32.08m7.93-.06l2.53-.06v-.76h-2.93c-.05 0 0 0 0 .08a5.47 5.47 0 0 1 .37.71zm-24.26-.08h.47l.16-.18.16-.1-.53-.76-.21.08s-.05 0-.08.08v.92zm.74 0h.21c.05 0 0-.05-.08-.08l-.18.16zm.63-.08h.87c0-.21-.24-.39-.34-.6-.19 0-.29.22-.48.32s-.1.08-.16.13l.11.21zm1.24-.1h.22c.1-.23.36-.28.52-.47-.08-.16-.21-.35-.31-.53s-.13-.23-.24-.29l-.76.52.55.76zm.64-.03h.02l.37-.02-.13-.18-.26.2zm.68-.03h.37v-.73l-.53.42c.08.11.19.21.13.34zm-2.84-.25l.61-.45-.06-.05-.47-.63-.64.45a2.52 2.52 0 0 0 .55.77zm4.42-.06l.4-.63-.5-.55a9.85 9.85 0 0 1 .1 1.18zm.5-.1a2.06 2.06 0 0 0 .61-.11 13.87 13.87 0 0 1 4.75 0c-.77-1.58-1.69-3.09-2.56-4.62a.09.09 0 0 0 0-.05h-.06c-.08.11-.16.24-.24.37-.6 1.05-1.18 2.11-1.79 3.14a10.6 10.6 0 0 0-.69 1.24zm5.76-.11c.05-1.29 0-2.58 0-3.88h-.56a4.41 4.41 0 0 0-.05 1.21v.5c0 .5-.08 1.11.21 1.51zm7.51-.02a6.89 6.89 0 0 1 1-.1.1.1 0 0 0 .08 0h.95a2.35 2.35 0 0 0 .4-.72l-.32.08a.16.16 0 0 0 0 .16c-.24.14-.51-.1-.74 0a2.16 2.16 0 0 1-.21-.05l-.05-.06.1-.47-.16-.21-.15.1-.16.22a.44.44 0 0 1 .13.36c-.19.24-.55.13-.84.24-.05 0-.08 0-.11-.08l.06-.21-.48-.19.53.79zm-15.66-.03l.68-.55-.53-.74a.08.08 0 0 0-.1 0c-.21.19-.48.32-.66.51a3.64 3.64 0 0 0 .58.79zm13.29-.08l.63-.71h-1.69v.63a8.7 8.7 0 0 0 .92 0 .31.31 0 0 1 .16 0m-1.89.05H40c.11-.15 0-.44 0-.66h-.47v.68zm8.67-.02l1.8-.06a2.88 2.88 0 0 0 0-.65 17.72 17.72 0 0 0-2.4 0 8.29 8.29 0 0 1 .61.71zm2.09-.06a3.2 3.2 0 0 0 1-.05v-.63a6.38 6.38 0 0 0-1.05 0zm-23.9-.1l.74-.53-.56-.76-.73.55.55.77v-.03zm-1.9-.08l.07-.05v-.06a.35.35 0 0 0-.1-.07V41z"/><path d="M33.17 40.87a.24.24 0 0 0 .21-.1.62.62 0 0 1 .13-.18s0-.05.05-.05 0-.08.05-.11.24.16.4.08.14-.19.14-.32a.14.14 0 0 1 0-.08l.07-.13v-.08a.11.11 0 0 1 .08 0 .17.17 0 0 0 .13-.1l-.1-.29-.19-.24c0-.11.13-.26 0-.39l-.26-.11c-.11 0-.24.16-.37.11l-.11-.29c-.08-.05-.13-.18-.26-.13s-.11.16-.14.21l-.08.16a1.06 1.06 0 0 1-.29 0c-.08 0-.19-.05-.24 0s0 .37-.13.53a.68.68 0 0 0-.26.13c0 .05-.07.19 0 .27s.1.13.21.16l.1.16c0 .1-.13.21-.08.34a.21.21 0 0 0 .21.13.37.37 0 0 0 .29-.05l.21.13.21.31z"/><path class="cls-1" d="M24.81 40.76l.66-.48-.47-.62a1.26 1.26 0 0 0-.52.39v.29zm5.74-.02L31 40l-.18-.29c-.11 0-.16.11-.24.13s-.34.21-.48.4l.39.53zm2.67-.11a.06.06 0 0 0 .06-.05.55.55 0 0 0 0-.5.79.79 0 0 0-.1.5zm-5.85-.23l.71-.56-.56-.74-.76.53.58.77h.03zm14.89-.03a6.83 6.83 0 0 1 1.32-.76c-.1-.08-.32 0-.47 0h-1.92v.61c.05.08.15 0 .21.08.31.05.61-.06.87.05m-13.48-.03v-.66l-.31.18.32.45zm5.12 0a.13.13 0 0 0 0-.19.52.52 0 0 0-.24-.22h-.13a.62.62 0 0 0 .29.4h.08m6.8.01h.18v-.68h-1.47v.61a9.49 9.49 0 0 0 1.21.08m6.73-.04c.37-.08.79 0 1.19 0a2.79 2.79 0 0 0 0-.66v-.05H46.3c.21.21.61.23.76.52a1.19 1.19 0 0 0 .32.19m-14.9 0l.29-.08.13-.29a.38.38 0 0 0-.37.18l-.11.14a.08.08 0 0 0 0 .05zm16.38-.03h2.43v-.68h-2.43l-.05.66zm-23.21-.13l.74-.53-.39-.66-.77.5zm4.35-.24l.58-.42.05-.08a2.64 2.64 0 0 0-.53-.69H30a4.67 4.67 0 0 0-.05 1.19zm3.17-.05h.11a.84.84 0 0 0 0-.26c-.06.05-.18-.06-.21 0v.21zm.83-.08a.4.4 0 0 0 .19-.08v-.08a.34.34 0 0 0-.18-.13l-.24.05s-.11.06-.11.11zm-9.53-.08l.31-.21c.08-.08 0-.16-.08-.24a1 1 0 0 0-.29-.21zm3.82 0a2 2 0 0 0 .47-.4V39c0-.27-.21-.4-.26-.58a.08.08 0 0 0-.05 0l-.74.52.52.74zm4.11.06l.42-.05c0-.05-.08-.1-.1-.1a1.37 1.37 0 0 0-.48-.08l-.05.06v.05zm-1.23-.08h.05l.21-.39-.37.26a.18.18 0 0 0 .11.16m1.71-.27a.22.22 0 0 0 0-.26.59.59 0 0 0-.31-.24c-.06.06 0 .16 0 .22a1.14 1.14 0 0 0 .31.29zm-6.28 0a4.05 4.05 0 0 0 .77-.53l-.45-.63-.76.53.42.63zm6.91-.14a.52.52 0 0 0 .35-.1.39.39 0 0 0 .08-.19s.05 0 0 0-.37 0-.42.19-.05.13 0 .13m-8.45-.05l.74-.5a1.92 1.92 0 0 0-.42-.58l-.71.5.4.55zm15.72.02l10.5-.05v-.74c-.42-.08-.89 0-1.32-.08l-.05-.53c-.56-.05-1.08 0-1.66-.05l-.13.63a.08.08 0 0 1-.08.08h-1a2.85 2.85 0 0 1-1.08-.1l-.06-.5a6.68 6.68 0 0 0-1.66-.08c-.08.1 0 .31 0 .47v.06a.2.2 0 0 1-.13.18 6.29 6.29 0 0 1-1.87-.11.92.92 0 0 1-.05-.53c-.53-.08-1.11 0-1.63-.05-.13.19.06.47-.1.69a5.37 5.37 0 0 1-.93.05 1.85 1.85 0 0 0 0 .53 5.15 5.15 0 0 0 1.29.13m-9.96-.05l.74-.55a3 3 0 0 0-.53-.74 8.41 8.41 0 0 0-.77.61 2.78 2.78 0 0 0 .56.69m2.32-.01h.11c.1-.11 0-.34 0-.5a.48.48 0 0 0-.15.39.09.09 0 0 1 0 .06zm-5.64-.5l.76-.52a2 2 0 0 0-.48-.64l-.74.56.43.6zM26 38.58l.74-.53a1.48 1.48 0 0 0-.37-.48l-.37.06c-.06 0 0 .15-.11.18s-.24.1-.31.24zm2.79 0l-.05-.42s-.16.05-.16.13zm-4.33-.06l.77-.55-.16-.21-.63.13v.63h.02zm7.39-.03l.39-.66-.34-.48c-.22.05-.4.29-.61.42a2.19 2.19 0 0 0 .5.74z"/><path class="cls-1" d="M39.71 38.34h.5c.08-.1 0-.29 0-.45s0 0-.08 0a.68.68 0 0 0-.42.34v.1m2.79-.02h1.4c.08-.18 0-.45.16-.58.58-.26 1.26 0 1.89-.13a.3.3 0 0 1 .24.13v.5a7.28 7.28 0 0 0 1.69 0v-.48s.05-.08.1-.1a13.68 13.68 0 0 1 1.5-.06c.21 0 .48 0 .61.08s0 .34.08.5h1v-.74l-1.17-.1a.12.12 0 0 1-.08-.13 2.92 2.92 0 0 0 0-.47 11.15 11.15 0 0 0-1.69-.05.15.15 0 0 0 0 .15.85.85 0 0 1-.08.5 13.89 13.89 0 0 1-1.87.05.74.74 0 0 1-.29-.13l-.05-.48a11.7 11.7 0 0 0-1.66-.08l-.05.55c-.05.1-.19.1-.24.15a11.32 11.32 0 0 0-1.58-.05l-.18-.16v-.45c-.53-.07-1.08 0-1.61 0a3.37 3.37 0 0 0 0 .89c.6.16 1.31-.13 1.89.11l.05.56a.05.05 0 0 0 .05 0m-12.45-.01c.16 0 .27-.18.43-.26s.26-.16.34-.3l-.34-.5-.53.08-.08.21c0 .26 0 .58.19.77M28.55 38l.19-.1v-.21c0-.05-.1 0-.13 0s-.1-.06-.1-.11v-.19l-.45.05c.05.24.26.4.42.61zm-1.82-.45l-.03.02.25.34h.02l.58-.44-.82.08zm-1.29.29l.16-.11h-.21v.08zm5.73-.27l.63-.47-.87.1c0 .13.13.27.27.4m1.26-.13l.23-.45a.64.64 0 0 0-.39 0l-.08.08v.08l.24.29zm-3.3-.19h.48l-.21-.45c-.16.06-.24.27-.34.4v.06zm6.41-.02l.53-.06a.8.8 0 0 0-.26-.45 1.1 1.1 0 0 0-.29.5zm-2.29-1.62l.18-.05a1.85 1.85 0 0 0-.15-.82s0 .08-.06.08c0 .27-.15.58 0 .79zm.72-.86s.13.1.19.08a.7.7 0 0 0 0-.42l-.71.16a.26.26 0 0 1 0 .08zm-1.75.07l.69-.13.1-.06-.1-.13-.64-.06v.35m.98-.39a.18.18 0 0 0 .1-.05l.08-.74v-.05h-.39c-.05 0 0 .13 0 .18a5.82 5.82 0 0 1 .24.64zM22.64 28l1.77-.47-.18-.56a9.44 9.44 0 0 0-1.88.61zM53 27.87c.19-.11.26-.32.4-.48s0-.05 0-.05c-.21-.18-.55-.18-.82-.31h-.05l-.24.61zm-.95-.27h.05l.21-.61a12.39 12.39 0 0 0-1.89-.53 1.68 1.68 0 0 0-.16.72zm-27.35-.16l2.16-.51-.13-.66c-.66.13-1.45.31-2.19.5h-.05zm-2.56-.18l1-.29c0-.13-.13-.61-.26-.65l-1.22.29zm27.7-.16H50l.16-.71a4.42 4.42 0 0 1-1.05-.26 10.71 10.71 0 0 1-1.14-.23l-.18.76v.05zm3.74-.03l.29-.34v-.05a8 8 0 0 0-2.08-.68l-.16.48zm-26.4-.18l2.16-.4c.08-.18-.08-.5-.1-.74-.71.18-1.43.29-2.22.42l.11.66v.05zm-3.69-.03l2-.53-.16-.69-2.06.55a1.19 1.19 0 0 0 .24.66zm23.92-.21h.05c.13-.16.11-.4.16-.58s.05-.16.05-.22l-2.19-.37-.11.82c.66.15 1.37.21 2.06.37m-17.74-.24l2.09-.26-.08-.77a19.08 19.08 0 0 0-2.16.29 2.38 2.38 0 0 0 .11.76zm21.62 0a.09.09 0 0 0 .05 0l.16-.5a11.9 11.9 0 0 0-2.19-.5l-.13.48c.64.23 1.4.34 2.11.55"/><path class="cls-1" d="M54.14 26.36a1.52 1.52 0 0 0 .37-.53 25.88 25.88 0 0 0-3-1A55.79 55.79 0 0 0 39.58 23c-1-.06-2 0-2.93 0-.77 0-1.45 0-2.19.05a52.11 52.11 0 0 0-5.36.58 51.31 51.31 0 0 0-6.73 1.58c-.42.16-.87.34-1.27.48l.4.61a61.19 61.19 0 0 1 6.68-1.61 55.55 55.55 0 0 1 7.68-.82 50.32 50.32 0 0 1 13.58 1.19c.56.11 1.08.27 1.61.39a27.66 27.66 0 0 1 3 .9z"/><path class="cls-1" d="M45 26.28h.08c.1-.21.05-.5.13-.74v-.08c-.74-.1-1.45-.23-2.19-.29L43 26c.6.16 1.37.13 2 .27m-19.27-.01l2.22-.51-.16-.71-2.22.53.13.66.03.03zm6.36-.14l1.89-.18-.02-.79-1.98.23.11.74zM42.61 26h.05a2.8 2.8 0 0 0 .13-.84 11.88 11.88 0 0 0-2-.19 7 7 0 0 0-.05.82zm-8.33-.06l2-.11v-.84l-2 .13.06.79m5.98-.06h.16c.1-.18 0-.47 0-.73V25h-.05l-1.85-.05c-.08.18 0 .4-.05.6s0 .16.05.24zm8.62 0l.13-.5a10 10 0 0 0-2.33-.5l-.13.55zm-12.4-.02h1.69a1.68 1.68 0 0 0 0-.84h-1.74a2.75 2.75 0 0 0 0 .79.09.09 0 0 0 0 .08zm-8.28-.13l2.11-.43-.1-.6a17 17 0 0 0-2.16.34l.13.66z"/><path class="cls-1" d="M54.64 25.62l.21-.26c-.45-.21-1-.34-1.45-.56a51.8 51.8 0 0 0-15.14-2.4h-1.58a20.51 20.51 0 0 0-2.16.11 51.89 51.89 0 0 0-5.75.69 56.62 56.62 0 0 0-7.12 1.71c-.26.13-.55.24-.81.37l.1.16c1.76-.44 3.58-1.11 5.39-1.44.4-.11.8-.16 1.22-.27a51.36 51.36 0 0 1 11-.93A53.84 53.84 0 0 1 48.94 24c1 .29 2.11.52 3.16.79.87.24 1.71.56 2.53.84"/><path class="cls-1" d="M46.3 25.38h.08l.1-.55a19.11 19.11 0 0 0-2.09-.32l-.05.55zm-15.64-.11l2.09-.27-.06-.63a11.39 11.39 0 0 0-2.11.24v.66zM55 25.15a.1.1 0 0 0 .06 0 6 6 0 0 0 .4-.64 13.66 13.66 0 0 0-1.72-.55l-.24.58v.11zM43.9 25h.1c.13-.13.08-.37.11-.53a16.56 16.56 0 0 0-2.11-.2l-.06.56a13.23 13.23 0 0 1 2 .21M20.69 25l1.56-.5a.08.08 0 0 1 0-.05L22 23.8l-1.67.56a.17.17 0 0 0 0 .15c.16.16.18.34.34.5zm12.37 0l1.82-.16c.16-.16 0-.42.05-.63L33 24.3a2.13 2.13 0 0 0 0 .7zm2.19-.17l1.93-.1v-.61a16.61 16.61 0 0 0-2 .06zm6.12 0h.24c.1-.19 0-.37.08-.56l-1.81-.1a1.36 1.36 0 0 0 0 .58zm-3.88-.08h2c.1-.13.05-.4.05-.58-.66-.08-1.37 0-2.06-.06a4.73 4.73 0 0 0 0 .6.06.06 0 0 0 .05.06m15.66-.26a2.3 2.3 0 0 0 .26-.68 13.84 13.84 0 0 0-1.84-.58l-.13.74 1.69.52zm-30.62-.13l1.74-.48-.18-.71a11.86 11.86 0 0 0-1.85.5l.27.69zm32.96-.18a.17.17 0 0 0 .19-.05 3.08 3.08 0 0 0 .45-.74 9.08 9.08 0 0 0-1.26-.48l-.45.9zm-35.42-.11l.27-.1-.37-.74-.37.13.47.71zm30.99-.24s0 .05.05 0l.16-.71a25.57 25.57 0 0 0-2.58-.64 3.28 3.28 0 0 0-.21.77zm-28.72-.53l-.34-.73-1.77.55.37.74 1.74-.56zm2.21.51l2-.45a2.21 2.21 0 0 0-.19-.79l-2 .5.21.77zm29.6-.05a.11.11 0 0 1 0-.06l.42-.87-.39-.13a3.83 3.83 0 0 0-.4.9zm-25.24-.85l-.13-.74a12.12 12.12 0 0 0-2.1.37c-.06.11 0 .21 0 .35a2.62 2.62 0 0 1 .1.45 13.4 13.4 0 0 0 2.09-.37m19.18.23h.16l.19-.77c0-.07-.19 0-.26-.07a17.92 17.92 0 0 0-2.07-.38 2.11 2.11 0 0 0-.07.81zm8.21-.02c.19-.13.24-.37.37-.53v-.05l-.58-.16-.24.55zm-36.77-.06l1-.34-.24-.55a2.62 2.62 0 0 0-1.05.42l.26.47zm35.98-.23l.14-.1.21-.51a3.41 3.41 0 0 0-1.24-.42 1.71 1.71 0 0 0-.29.61zm-26.24-.03l2.11-.32-.11-.82-2.16.32.13.82h.03zm16.4-.08h.05l.16-.8a18.55 18.55 0 0 0-2.4-.34c-.13.21-.08.55-.13.81.74.13 1.56.18 2.32.32m5.2-.05h.05a5.32 5.32 0 0 0 .29-.89 2.82 2.82 0 0 0-1-.29l-.27.92zm-28.94-.47l-.18-.58-1.19.42.21.53 1.16-.37zm2.61-.5l.21.9h.03l.29-.11-.21-.84-.32.05zm.79.74l1.51-.32-.19-.92-1.55.37.21.87h.02zm6.33 0l1.77-.16a2.92 2.92 0 0 0 0-.84l-1.82.19.08.81zM43 22.48h.1a2.84 2.84 0 0 0 .13-.84 21.54 21.54 0 0 0-2.27-.22l-.05.85zm6.7-.02l.26-.92a1.54 1.54 0 0 0-.71-.19 9.68 9.68 0 0 0-.27 1zm-15.95-.11l2.35-.13v-.82a24 24 0 0 0-2.42.06l.05.87m6.72-.06h.16c.1-.24 0-.56.08-.82a14.43 14.43 0 0 0-2.16-.13v.84c.61.08 1.31 0 2 .11m-4.14-.05l1.84-.06v-.82h-1.85a3 3 0 0 0 0 .87zm9.61-.5h.08l.21-.93a12.31 12.31 0 0 0-2-.34l-.16 1zm-16.36-.05l.42-.08-.11-.93c-.13-.08-.31 0-.47 0a3.53 3.53 0 0 0 .1 1zm.73-.11l1.27-.16c.14-.31-.05-.68-.05-1l-1.32.16a2.07 2.07 0 0 0 .08 1m20.8 0h.08l.21-.71-2-.52a2 2 0 0 0-.19.74zm-26.68-.05l1.32-.34-.16-.63-1.24.31c-.08.18.06.45.08.66m9.91-.35l1.16-.08-.05-1c-.13 0-1.14.05-1.14.08v1m6.65 0h.29l.09-.93a6.7 6.7 0 0 0-1.45-.1v1zm-14.93-.05l.56-.08-.21-.73-.48.13a1.66 1.66 0 0 0 .11.69zm10.35-.05v-.95c-.16-.06-.4 0-.6 0v1h.58m3.02-.02h.22a2.94 2.94 0 0 0 .05-1 .51.51 0 0 0-.35 0v.89s.08 0 .1.06m6.78-.53h.13a1.47 1.47 0 0 0 .13-.69 6.22 6.22 0 0 0-1-.18l-.1.74zm-16.79-.06l1.29-.21-.08-.63a8.47 8.47 0 0 0-1.32.21l.05.61M45 20.35h.13a2.05 2.05 0 0 0 .11-.72c-.18-.13-.5-.08-.74-.13-.11.13-.08.35-.16.53v.18c.16.14.45.08.66.14m-13.94-.14l.5-.08-.11-.64-.47.06a1 1 0 0 0 .05.63zm9.88-.26h.46l.05-.71-.53-.11.02.82zm-.28-.08l.05-.66a3.15 3.15 0 0 0-1.32-.11l-.05.71zm-6.3.06h.32a1.72 1.72 0 0 0 0-.71h-.35v.74zm.6-.06l1.43-.03-.02-.71-1.43.03v.71h.02z"/><path d="M34.6 57.57h-.09a2.15 2.15 0 0 1-.18.27 1.31 1.31 0 0 0-.22.37h.08a1.33 1.33 0 0 1 .21-.35 2 2 0 0 0 .17-.26h.07a4.33 4.33 0 0 1 1.27-.39v-.09a4.41 4.41 0 0 0-1.3.4M84.51 37a2 2 0 0 1 0 .29.57.57 0 0 1-.06.2.27.27 0 0 1-.1.11.24.24 0 0 1-.13 0H81v9.84a.21.21 0 0 1 0 .12.24.24 0 0 1-.12.08l-.23.05h-.72l-.24-.05a.24.24 0 0 1-.12-.08.22.22 0 0 1 0-.12v-9.82h-3.25a.24.24 0 0 1-.13 0 .25.25 0 0 1-.09-.11.78.78 0 0 1-.06-.2A1.68 1.68 0 0 1 76 37a1.75 1.75 0 0 1 0-.29.83.83 0 0 1 .06-.21.24.24 0 0 1 .09-.11.23.23 0 0 1 .13 0h7.9a.23.23 0 0 1 .13 0 .26.26 0 0 1 .1.11.62.62 0 0 1 .06.21 2.09 2.09 0 0 1 0 .29m10.16 10.47a.26.26 0 0 1 0 .12.2.2 0 0 1-.11.09 1 1 0 0 1-.24.05h-.79a.85.85 0 0 1-.23-.06.32.32 0 0 1-.14-.11.69.69 0 0 1-.08-.18l-1-2.68q-.18-.46-.38-.84a2.68 2.68 0 0 0-.47-.66 1.93 1.93 0 0 0-.64-.43 2.31 2.31 0 0 0-.89-.15h-1v4.84a.2.2 0 0 1 0 .12.26.26 0 0 1-.12.08l-.23.05h-.72l-.23-.05a.23.23 0 0 1-.12-.08.22.22 0 0 1 0-.12V37a.56.56 0 0 1 .18-.48.62.62 0 0 1 .38-.14h3.42a4.34 4.34 0 0 1 1.16.36 2.76 2.76 0 0 1 .85.62 2.51 2.51 0 0 1 .51.86 3.23 3.23 0 0 1 .26 1.11 3.15 3.15 0 0 1-.15 1 2.46 2.46 0 0 1-.44.8 2.94 2.94 0 0 1-.69.6 4.4 4.4 0 0 1-.9.43 2.17 2.17 0 0 1 .51.31 2.7 2.7 0 0 1 .43.45 4.25 4.25 0 0 1 .37.61q.18.34.35.77l1 2.5c.08.21.13.36.16.44a.82.82 0 0 1 0 .2m-2.27-8a2 2 0 0 0-.3-1.13 1.69 1.69 0 0 0-1-.66 2.88 2.88 0 0 0-.5-.09h-2.01v3.83H90a3.27 3.27 0 0 0 1-.15 2 2 0 0 0 .72-.4 1.58 1.58 0 0 0 .43-.61 2.09 2.09 0 0 0 .14-.76M107 41.89a8.79 8.79 0 0 1-.33 2.48 5.18 5.18 0 0 1-1 1.88 4.24 4.24 0 0 1-1.62 1.19 5.75 5.75 0 0 1-2.27.42 5.86 5.86 0 0 1-2.22-.38 3.9 3.9 0 0 1-1.54-1.11 4.73 4.73 0 0 1-.91-1.81 9.33 9.33 0 0 1-.3-2.48 8.56 8.56 0 0 1 .33-2.44 5.06 5.06 0 0 1 1-1.86 4.31 4.31 0 0 1 1.62-1.18 5.74 5.74 0 0 1 2.27-.42 5.8 5.8 0 0 1 2.18.38 4 4 0 0 1 1.55 1.1 4.69 4.69 0 0 1 .92 1.79 9 9 0 0 1 .3 2.44m-1.6.1a8.9 8.9 0 0 0-.17-1.79 4.13 4.13 0 0 0-.57-1.44 2.74 2.74 0 0 0-1.06-1 3.58 3.58 0 0 0-1.65-.34 3.36 3.36 0 0 0-1.65.37 3.1 3.1 0 0 0-1.08 1 4.09 4.09 0 0 0-.6 1.43 8 8 0 0 0-.11 1.78 9.52 9.52 0 0 0 .17 1.84 4.1 4.1 0 0 0 .56 1.45 2.68 2.68 0 0 0 1.06.95 3.64 3.64 0 0 0 1.66.34 3.44 3.44 0 0 0 1.66-.37 3 3 0 0 0 1.09-1 4.2 4.2 0 0 0 .59-1.45 8.37 8.37 0 0 0 .18-1.75m13.45 5.06a.69.69 0 0 1-.06.3.59.59 0 0 1-.37.32.82.82 0 0 1-.24 0h-.5a1.57 1.57 0 0 1-.41 0 .92.92 0 0 1-.34-.17 1.79 1.79 0 0 1-.32-.35 4.52 4.52 0 0 1-.34-.56l-3.46-6.46q-.27-.5-.55-1c-.18-.37-.35-.72-.51-1.07v9.45a.21.21 0 0 1 0 .12.23.23 0 0 1-.12.09l-.23.05h-.74l-.23-.05a.23.23 0 0 1-.12-.09.21.21 0 0 1 0-.12V37a.58.58 0 0 1 .2-.5.71.71 0 0 1 .43-.15h.74a1.88 1.88 0 0 1 .44 0 .91.91 0 0 1 .32.15 1.22 1.22 0 0 1 .27.28 3.65 3.65 0 0 1 .28.45l2.66 5 .47.89.44.86.42.83.41.82v-9.04a.2.2 0 0 1 0-.11.3.3 0 0 1 .12-.09.83.83 0 0 1 .23-.06h.73a.77.77 0 0 1 .23.06.3.3 0 0 1 .12.09.2.2 0 0 1 0 .11zm12.65-5.22a7.93 7.93 0 0 1-.38 2.58 4.69 4.69 0 0 1-1.1 1.83 4.56 4.56 0 0 1-1.78 1.08 7.79 7.79 0 0 1-2.51.36h-2.4a.62.62 0 0 1-.38-.14.56.56 0 0 1-.18-.48V37a.56.56 0 0 1 .18-.48.62.62 0 0 1 .38-.14H126a7.12 7.12 0 0 1 2.49.38 4.55 4.55 0 0 1 1.71 1.1 4.7 4.7 0 0 1 1 1.73 6.94 6.94 0 0 1 .36 2.3m-1.59.06a6.18 6.18 0 0 0-.23-1.72 3.69 3.69 0 0 0-.71-1.37 3.31 3.31 0 0 0-1.23-.9 4.86 4.86 0 0 0-1.92-.32h-1.54v8.84h1.55a5.37 5.37 0 0 0 1.83-.27 3 3 0 0 0 1.25-.83 3.64 3.64 0 0 0 .75-1.41 7.12 7.12 0 0 0 .25-2m13.03 5.5a.22.22 0 0 1 0 .12.23.23 0 0 1-.12.08l-.23.05h-.73l-.23-.05a.23.23 0 0 1-.12-.08.21.21 0 0 1 0-.12v-5h-5.27v5a.22.22 0 0 1 0 .12.24.24 0 0 1-.12.08l-.23.05h-.72l-.24-.05a.23.23 0 0 1-.12-.08.21.21 0 0 1 0-.12v-10.9a.21.21 0 0 1 0-.12.23.23 0 0 1 .12-.08l.24-.05h.72l.23.05a.24.24 0 0 1 .12.08.23.23 0 0 1 0 .12v4.55h5.17v-4.55a.22.22 0 0 1 0-.12.23.23 0 0 1 .12-.08l.23-.05h.73l.23.05a.24.24 0 0 1 .12.08.22.22 0 0 1 0 .12zm10.2-.4a1.89 1.89 0 0 1 0 .28.59.59 0 0 1-.06.2.29.29 0 0 1-.1.11.24.24 0 0 1-.13 0h-5.45a.62.62 0 0 1-.38-.14.56.56 0 0 1-.18-.48V37a.56.56 0 0 1 .18-.48.62.62 0 0 1 .38-.14h5.39a.24.24 0 0 1 .13 0 .25.25 0 0 1 .09.11.93.93 0 0 1 .06.2 1.69 1.69 0 0 1 0 .29 1.57 1.57 0 0 1 0 .28.82.82 0 0 1-.06.19.25.25 0 0 1-.09.11.24.24 0 0 1-.13 0h-4.44v3.56h3.81a.22.22 0 0 1 .13 0 .32.32 0 0 1 .1.11.53.53 0 0 1 .06.19 2 2 0 0 1 0 .29 1.74 1.74 0 0 1 0 .27.53.53 0 0 1-.06.19.26.26 0 0 1-.1.1.28.28 0 0 1-.13 0h-3.81v4.06h4.5a.24.24 0 0 1 .13 0 .31.31 0 0 1 .1.11.53.53 0 0 1 .06.19 2 2 0 0 1 0 .29m4.87.55a.22.22 0 0 1 0 .12.24.24 0 0 1-.12.08l-.23.05h-.73l-.24-.05a.23.23 0 0 1-.12-.08.21.21 0 0 1 0-.12v-10.9a.2.2 0 0 1 0-.12.27.27 0 0 1 .13-.08l.24-.05h.72l.23.05a.24.24 0 0 1 .12.08.23.23 0 0 1 0 .12zm16.26 0a.21.21 0 0 1 0 .12.23.23 0 0 1-.13.08l-.23.05h-.73l-.24-.05a.24.24 0 0 1-.12-.08.2.2 0 0 1 0-.12v-9.89l-4 9.93a.3.3 0 0 1-.08.1.4.4 0 0 1-.14.08h-1.06a.38.38 0 0 1-.14-.07.24.24 0 0 1-.07-.1l-3.82-9.93v9.89a.2.2 0 0 1 0 .12.24.24 0 0 1-.13.08l-.23.05h-.73l-.23-.05a.21.21 0 0 1-.12-.08.24.24 0 0 1 0-.12V37a.64.64 0 0 1 .2-.53.68.68 0 0 1 .44-.16h.93a2.12 2.12 0 0 1 .5.05 1.07 1.07 0 0 1 .37.17 1 1 0 0 1 .27.29 2 2 0 0 1 .19.41l3.25 8.22 3.38-8.2a2.46 2.46 0 0 1 .21-.45 1.16 1.16 0 0 1 .25-.29.88.88 0 0 1 .31-.16 1.45 1.45 0 0 1 .39 0h1a.79.79 0 0 1 .25 0 .5.5 0 0 1 .21.12.62.62 0 0 1 .14.21.83.83 0 0 1 .05.31zm16.28-.02a.25.25 0 0 1 0 .13.22.22 0 0 1-.12.09l-.24.06h-.39a3.75 3.75 0 0 1-.5 0 .66.66 0 0 1-.29-.1.69.69 0 0 1-.16-.16l-4.18-5.68v5.68a.21.21 0 0 1-.16.21l-.23.05h-.72l-.24-.05a.22.22 0 0 1-.12-.09.22.22 0 0 1 0-.12v-10.9a.21.21 0 0 1 0-.12.23.23 0 0 1 .12-.08l.24-.05h.72l.23.05a.23.23 0 0 1 .12.08.22.22 0 0 1 0 .12v5l4-5a.51.51 0 0 1 .12-.13.54.54 0 0 1 .17-.08h.99l.22.06a.22.22 0 0 1 .11.09.21.21 0 0 1 0 .11.51.51 0 0 1-.06.23 2.13 2.13 0 0 1-.22.32l-3.77 4.5L190.4 47a1.92 1.92 0 0 1 .18.31.41.41 0 0 1 0 .14m11.52-5.56a8.77 8.77 0 0 1-.33 2.48 5.18 5.18 0 0 1-1 1.88 4.24 4.24 0 0 1-1.62 1.19 5.74 5.74 0 0 1-2.27.42 5.85 5.85 0 0 1-2.22-.38 3.91 3.91 0 0 1-1.54-1.11 4.74 4.74 0 0 1-.91-1.81 9.33 9.33 0 0 1-.3-2.48 8.61 8.61 0 0 1 .32-2.44 5.07 5.07 0 0 1 1-1.86 4.32 4.32 0 0 1 1.62-1.18 5.73 5.73 0 0 1 2.27-.42 5.8 5.8 0 0 1 2.19.38 4 4 0 0 1 1.55 1.1 4.67 4.67 0 0 1 .92 1.79 9 9 0 0 1 .3 2.44m-1.6.1a8.87 8.87 0 0 0-.17-1.79 4.13 4.13 0 0 0-.57-1.44 2.75 2.75 0 0 0-1.06-1 3.58 3.58 0 0 0-1.65-.34 3.36 3.36 0 0 0-1.65.37 3.1 3.1 0 0 0-1.08 1 4.09 4.09 0 0 0-.6 1.43 8 8 0 0 0-.18 1.72 9.51 9.51 0 0 0 .17 1.84 4.12 4.12 0 0 0 .56 1.45 2.68 2.68 0 0 0 1.06.95 3.64 3.64 0 0 0 1.66.34 3.44 3.44 0 0 0 1.66-.37 3 3 0 0 0 1.09-1 4.22 4.22 0 0 0 .59-1.45 8.4 8.4 0 0 0 .17-1.75m17.26 5.52a.21.21 0 0 1 0 .12.23.23 0 0 1-.13.08l-.23.05h-.73l-.23-.05a.24.24 0 0 1-.12-.08.21.21 0 0 1 0-.12v-9.89l-4 9.93a.31.31 0 0 1-.07.1.4.4 0 0 1-.14.08h-1.06a.38.38 0 0 1-.14-.07.23.23 0 0 1-.07-.1l-3.83-9.93v9.89a.21.21 0 0 1 0 .12.24.24 0 0 1-.13.08l-.24.05h-.73l-.23-.05a.21.21 0 0 1-.12-.08.24.24 0 0 1 0-.12V37a.64.64 0 0 1 .2-.53.68.68 0 0 1 .44-.16h.93a2.13 2.13 0 0 1 .5.05 1.07 1.07 0 0 1 .37.17 1 1 0 0 1 .27.29 2 2 0 0 1 .19.41l3.25 8.22 3.38-8.2a2.44 2.44 0 0 1 .21-.45 1.18 1.18 0 0 1 .25-.29.89.89 0 0 1 .31-.16 1.45 1.45 0 0 1 .39 0h1a.79.79 0 0 1 .25 0 .5.5 0 0 1 .2.12.62.62 0 0 1 .14.21.82.82 0 0 1 .05.31zm16.26 0a.21.21 0 0 1 0 .12.23.23 0 0 1-.13.08l-.23.05h-.73l-.23-.05a.24.24 0 0 1-.12-.08.21.21 0 0 1 0-.12v-9.89l-4 9.93a.31.31 0 0 1-.07.1.4.4 0 0 1-.14.08h-1.06a.38.38 0 0 1-.14-.07.23.23 0 0 1-.07-.1l-3.83-9.93v9.89a.21.21 0 0 1 0 .12.24.24 0 0 1-.13.08l-.24.05h-.73l-.23-.05a.21.21 0 0 1-.12-.08.24.24 0 0 1 0-.12V37a.64.64 0 0 1 .2-.53.68.68 0 0 1 .44-.16h.93a2.13 2.13 0 0 1 .5.05 1.07 1.07 0 0 1 .37.17 1 1 0 0 1 .27.29 2 2 0 0 1 .19.41l3.25 8.22 3.38-8.2a2.43 2.43 0 0 1 .21-.45 1.18 1.18 0 0 1 .25-.29.89.89 0 0 1 .31-.16 1.45 1.45 0 0 1 .39 0h1a.79.79 0 0 1 .25 0 .5.5 0 0 1 .2.12.62.62 0 0 1 .14.21.82.82 0 0 1-.08.32zm12.46-3.97a5.26 5.26 0 0 1-.3 1.85 3.78 3.78 0 0 1-.86 1.37 3.63 3.63 0 0 1-1.37.85 5.42 5.42 0 0 1-1.83.29 5.1 5.1 0 0 1-1.71-.27 3.6 3.6 0 0 1-1.33-.8 3.51 3.51 0 0 1-.85-1.33 5.26 5.26 0 0 1-.3-1.84v-7a.22.22 0 0 1 0-.12.25.25 0 0 1 .12-.08l.23-.05h.73l.23.05a.24.24 0 0 1 .12.08.22.22 0 0 1 0 .12v6.86a4.41 4.41 0 0 0 .19 1.38 2.6 2.6 0 0 0 .56 1 2.33 2.33 0 0 0 .88.59 3.2 3.2 0 0 0 1.15.2 3.31 3.31 0 0 0 1.17-.19 2.22 2.22 0 0 0 .87-.58 2.58 2.58 0 0 0 .54-1 4.24 4.24 0 0 0 .19-1.33v-6.98a.21.21 0 0 1 0-.12.24.24 0 0 1 .12-.08l.23-.05h.72l.23.05a.28.28 0 0 1 .12.08.2.2 0 0 1 0 .12zm12.47 3.57a.69.69 0 0 1-.06.3.59.59 0 0 1-.37.32.8.8 0 0 1-.24 0h-.5a1.58 1.58 0 0 1-.41 0 .93.93 0 0 1-.33-.17 1.73 1.73 0 0 1-.32-.35 4.31 4.31 0 0 1-.34-.56l-3.46-6.46q-.27-.5-.55-1t-.51-1.15v9.45a.21.21 0 0 1 0 .12.24.24 0 0 1-.13.09l-.23.05h-.73l-.23-.05a.23.23 0 0 1-.12-.09.22.22 0 0 1 0-.12V37a.58.58 0 0 1 .2-.5.72.72 0 0 1 .44-.15h.74a1.88 1.88 0 0 1 .44 0 .9.9 0 0 1 .32.15 1.23 1.23 0 0 1 .27.28 3.83 3.83 0 0 1 .28.45l2.66 5 .47.89.44.86.42.83.41.82v-9.04a.2.2 0 0 1 0-.11.31.31 0 0 1 .13-.09.83.83 0 0 1 .23-.06h.72a.76.76 0 0 1 .23.06.3.3 0 0 1 .12.09.2.2 0 0 1 0 .11zm10.23 0a1.84 1.84 0 0 1 0 .28.59.59 0 0 1-.06.2.29.29 0 0 1-.1.11.24.24 0 0 1-.13 0h-5.45a.62.62 0 0 1-.38-.14.56.56 0 0 1-.18-.48V37a.56.56 0 0 1 .18-.48.62.62 0 0 1 .38-.14h5.39a.24.24 0 0 1 .13 0 .25.25 0 0 1 .09.11.93.93 0 0 1 .06.2 1.69 1.69 0 0 1 0 .29 1.57 1.57 0 0 1 0 .28.83.83 0 0 1-.06.19.25.25 0 0 1-.09.11.24.24 0 0 1-.13 0h-4.44v3.56h3.81a.22.22 0 0 1 .13 0 .31.31 0 0 1 .1.11.52.52 0 0 1 .06.19 2 2 0 0 1 0 .29 1.74 1.74 0 0 1 0 .27.52.52 0 0 1-.06.19.26.26 0 0 1-.1.1.28.28 0 0 1-.13 0h-3.81v4.06h4.5a.24.24 0 0 1 .13 0 .3.3 0 0 1 .1.11.53.53 0 0 1 .06.19 2 2 0 0 1 0 .29"/><path class="cls-3" d="M287.88 84.19V0H0v84.19"/></g></g></svg>